<svg width="132" height="126" viewBox="0 0 132 126" fill="none" xmlns="http://www.w3.org/2000/svg">
<path fill-rule="evenodd" clip-rule="evenodd" d="M38.9249 33.0494C37.1597 33.3171 35.8116 33.9214 34.4804 35.2214C32.3234 37.3277 32.1287 37.1032 32.3313 57.5526C32.3313 75.5157 32.3469 76.0949 32.8613 77.3024C33.5801 78.9892 34.9459 80.3207 36.7597 81.1026L38.2707 81.7541L47.5374 81.823L56.8042 81.8918L61.396 87.0831C62.6407 88.4902 63.8059 89.7724 64.6677 90.711C65.4502 91.5633 66.7863 91.5607 67.5644 90.7045C68.4064 89.778 69.5385 88.5184 70.7465 87.1348L75.2411 81.9859L84.6051 81.87L93.969 81.7541L95.4688 81.1075C97.168 80.3749 98.4079 79.252 99.2204 77.7101C99.7692 76.669 99.7774 76.4133 99.8484 57.8889C99.9142 40.7917 99.8809 39.0112 99.4736 37.8747C98.8873 36.2382 96.9658 34.3776 95.0961 33.6357C94.177 33.2709 93.1972 33.083 92.2083 33.0817L66.9117 33.0493C52.1754 33.0303 39.5898 32.9486 38.9249 33.0494ZM93.8573 38.5123C94.3477 38.9428 94.6289 39.5639 94.6289 40.2165V57.2743C94.6289 70.8016 94.5494 75.512 94.3134 75.9665C93.6717 77.2032 93.3816 77.2347 82.6456 77.2347H72.7479L69.5457 80.885C67.7842 82.8928 66.2563 84.5633 66.1499 84.5979C66.0435 84.6322 64.4787 82.9903 62.6726 80.949L59.3885 77.2377L49.5423 77.2363C38.863 77.2345 38.5674 77.2023 37.9262 75.9665C37.6902 75.512 37.6107 70.8016 37.6107 57.2743V40.2165C37.6107 39.5638 37.8919 38.9428 38.3823 38.5123C38.8797 38.0756 39.5189 37.8348 40.1807 37.8348H66.1198H92.0589C92.7207 37.8348 93.36 38.0756 93.8573 38.5123Z" fill="white"/>
<path d="M65.3229 46.9186L65.3229 46.9186C66.4032 47.3697 67.4578 47.2906 68.2251 46.8794C68.9847 46.4724 69.4831 45.7338 69.4831 44.7793C69.4831 43.8307 68.9011 43.0388 68.042 42.6105C67.1824 42.182 66.0947 42.1471 65.1664 42.6855L65.3229 46.9186ZM65.3229 46.9186C64.3944 46.5309 63.8999 45.7771 63.9108 44.7367L65.3229 46.9186ZM60.5625 52.1644L60.5624 52.1644C60.0599 52.3256 59.1984 52.6635 58.6623 52.9099L60.5625 52.1644ZM60.5625 52.1644C62.7323 51.4678 64.9317 51.9388 66.7894 53.5316C67.9411 54.5191 68.4329 55.1751 68.538 56.1771C68.6516 57.2606 68.3218 58.7941 67.5305 61.5642L67.5305 61.5642C67.2259 62.6305 66.9577 63.6559 66.7707 64.4503C66.6774 64.8469 66.6032 65.1907 66.5549 65.4552C66.5308 65.587 66.512 65.7051 66.5008 65.8032C66.4919 65.8809 66.4794 66.0066 66.4984 66.1185L66.4985 66.1189C66.5467 66.4015 66.6493 66.6683 66.8337 66.8848C67.0227 67.1067 67.2706 67.2437 67.5499 67.3048C68.0761 67.4197 68.7112 67.2661 69.3904 66.9756C69.3904 66.9756 69.3904 66.9756 69.3904 66.9756L70.1674 66.6433L71.1424 68.394C71.1424 68.394 71.1424 68.394 71.1424 68.394C71.2096 68.5147 71.2729 68.6276 71.3322 68.7336C71.578 69.1728 71.757 69.4924 71.8739 69.7463C71.9876 69.9932 71.9993 70.0934 72.0005 70.1203C71.9817 70.1391 71.912 70.1982 71.6967 70.2911C71.4541 70.3958 71.125 70.5053 70.6686 70.6572C70.5579 70.694 70.4398 70.7334 70.3136 70.7757L70.4726 71.2497M60.5625 52.1644L70.4726 71.2497M58.9713 54.7043L58.9713 54.7043C59.2671 55.2578 59.5498 55.7724 59.7665 56.1551C59.8472 56.2975 59.9179 56.4202 59.9762 56.5191C60.0854 56.4869 60.2127 56.4466 60.343 56.4038C60.518 56.3462 60.6917 56.2866 60.8221 56.2411C60.8871 56.2185 60.9411 56.1994 60.9788 56.1861L61.0222 56.1706L61.0265 56.1691C61.7237 55.8825 62.3276 55.7134 62.8255 55.737C63.0868 55.7494 63.3382 55.8156 63.5577 55.9622C63.7788 56.1099 63.9321 56.3156 64.0337 56.5486L64.0338 56.5487C64.0753 56.6441 64.0826 56.7352 64.0851 56.7763C64.0884 56.8293 64.087 56.8832 64.0842 56.9325C64.0784 57.0318 64.0638 57.1502 64.044 57.2792C64.0041 57.5393 63.9366 57.8806 63.8487 58.2759C63.6725 59.0684 63.4082 60.1043 63.0982 61.1944L58.9713 54.7043ZM58.9713 54.7043L58.4112 53.6567C58.2644 53.3819 58.3792 53.0402 58.6622 52.91L58.9713 54.7043ZM70.4726 71.2497L70.3136 70.7757C68.3187 71.445 66.2291 71.1553 64.6421 70.2507C63.0546 69.3459 62.0126 67.8566 62.0035 66.1348M70.4726 71.2497L62.0035 66.1348M62.0035 66.1348C62.0022 65.8871 62.1117 65.216 62.3166 64.2813M62.0035 66.1348L62.3166 64.2813M62.3166 64.2813C62.5162 63.3712 62.7929 62.2681 63.0982 61.1944L62.3166 64.2813ZM63.9108 44.7367C63.9161 44.2425 64.0176 43.8659 64.2063 43.5551C64.3964 43.242 64.6984 42.9571 65.1663 42.6856L63.9108 44.7367Z" fill="white" stroke="white"/>
</svg>
