<svg width="132" height="125" viewBox="0 0 132 125" fill="none" xmlns="http://www.w3.org/2000/svg">
<path fill-rule="evenodd" clip-rule="evenodd" d="M61.433 24.6695C59.2187 26.2045 58.3895 26.432 55.3367 26.3446C50.7866 26.2138 49.5645 26.8934 47.9692 30.4418C46.8421 32.9471 46.2758 33.4877 43.8451 34.3754C40.0109 35.7767 39.0707 37.3023 39.4458 41.5162C39.7198 44.5967 39.5868 45.0728 37.8664 47.1648C35.3805 50.1873 35.3781 52.6093 37.8578 55.5615C39.5598 57.5872 39.7032 58.0856 39.444 61.0711C39.0762 65.3149 39.8466 66.5948 43.774 68.2641C49.1134 70.5343 49.1147 71.2168 43.793 83.1173C41.2832 88.7307 39.4636 93.572 39.6707 94.0879C40.1365 95.2488 42.6463 95.2764 45.9626 94.1571L48.4926 93.3028L49.7423 95.6469C51.3407 98.6436 53.1266 100.349 54.2396 99.94C54.7207 99.7635 57.1042 95.138 59.5368 89.6606C63.743 80.1898 64.0372 79.7108 65.5467 79.8808C66.9717 80.0415 67.5643 81.0218 71.325 89.4407C76.7766 101.643 77.4808 102.17 80.6985 96.4555C81.9696 94.197 82.7774 93.3456 83.4246 93.5819C88.2088 95.3292 91.3921 95.3063 91.3921 93.525C91.3921 93.0103 89.448 88.2406 87.0725 82.9256C82.9937 73.8001 82.7945 73.1516 83.503 71.2778C84.0834 69.7428 84.8526 69.0744 86.8966 68.3274C90.941 66.8499 92.1263 65.0381 91.6581 61.0494C91.3008 58.0099 91.4074 57.6189 93.1719 55.4999C95.6143 52.5665 95.61 50.4828 93.1554 47.2129C91.3921 44.8641 91.2732 44.4149 91.652 41.515C92.1545 37.6693 90.9281 35.8054 86.9389 34.3478C84.8097 33.5704 84.1368 32.9336 83.234 30.8452C81.551 26.9526 80.4135 26.2437 76.0062 26.3393C72.7573 26.4091 71.846 26.1757 69.4496 24.6572C65.958 22.4444 64.6415 22.4467 61.433 24.6695ZM68.6669 29.3008C70.4713 30.5977 71.2913 30.786 74.5567 30.6523L78.3499 30.4969L79.637 33.4596C80.7757 36.0804 81.3034 36.5835 84.2097 37.8124L87.4948 39.2026L87.2263 42.7498C86.9787 46.0244 87.105 46.4747 88.8688 48.6048C89.9193 49.8742 90.7792 51.0744 90.7792 51.2731C90.7792 51.4713 89.9267 52.7524 88.8854 54.1203C87.1705 56.3712 87.0155 56.9335 87.2447 60.0562L87.4984 63.5055L84.3022 64.8576C81.5406 66.0261 80.916 66.613 79.7025 69.1817L78.2984 72.1537L74.4599 72.074C71.0032 72.0024 70.375 72.1813 68.1454 73.871L65.6687 75.7473L62.9217 73.8605C60.4598 72.169 59.7733 71.9837 56.3007 72.0751L52.4261 72.1772L51.6085 69.9621C50.4943 66.9437 49.426 65.91 46.2029 64.7321L43.4535 63.7277L43.8463 60.405C44.214 57.2976 44.1056 56.8965 42.1682 54.2082L40.0979 51.3335L42.1682 48.4541C44.0988 45.7688 44.2128 45.3519 43.85 42.289L43.4614 39.0032L45.6096 38.2598C48.8707 37.1317 50.6309 35.5387 51.5454 32.8867L52.3752 30.4828L56.2333 30.6189C59.6937 30.7414 60.3623 30.5673 62.7183 28.9338C64.1628 27.9318 65.6203 27.2657 65.9574 27.4533C66.2944 27.6409 67.5135 28.4723 68.6669 29.3008ZM59.8402 76.8531C60.2367 77.4669 54.0257 92.6749 53.3932 92.6379C53.2247 92.6286 52.5205 91.7731 51.8279 90.7371C50.5433 88.8163 50.0732 88.6867 47.1056 89.4366L45.4141 89.8641L47.6143 84.9619C48.8242 82.2654 50.1676 79.2576 50.5991 78.2778C51.3492 76.5751 51.5625 76.4895 55.4047 76.3535C57.8121 76.2685 59.5919 76.469 59.8402 76.8531ZM82.4342 82.9074C83.997 86.4406 85.186 89.4173 85.0757 89.5223C84.966 89.6278 83.9823 89.4689 82.8914 89.1693C80.8174 88.6006 79.7454 89.1968 78.1789 91.7907C77.6359 92.6907 76.9611 91.5972 74.018 85.0451C71.3183 79.0353 70.6882 77.1128 71.2962 76.7376C71.7307 76.469 73.7753 76.3025 75.8395 76.367L79.5928 76.4843L82.4342 82.9074Z" fill="white"/>
<path d="M57.938 53.6994L57.9945 53.4079L57.7656 53.2188L54.8459 50.8067C54.8459 50.8067 54.8459 50.8067 54.8459 50.8067C53.5648 49.7481 52.9216 49.1593 52.6427 48.745C52.5157 48.5563 52.4985 48.4513 52.5001 48.3869C52.502 48.3126 52.5311 48.2063 52.6454 48.0144C52.7729 47.8003 52.8929 47.6542 53.0555 47.5318C53.2233 47.4055 53.4641 47.2836 53.8603 47.1615C54.6701 46.9119 55.9984 46.6976 58.3749 46.3761C59.4309 46.2335 60.1816 46.0989 60.758 45.6422C61.3269 45.1913 61.6651 44.4733 62.1086 43.4294C62.3694 42.8156 62.7235 42.1493 63.0829 41.5739C63.4492 40.9875 63.7953 40.5372 64.0324 40.3241C64.303 40.0809 64.5982 39.861 64.8504 39.705C64.9768 39.6268 65.0845 39.5696 65.167 39.5336C65.2154 39.5126 65.2433 39.5041 65.2542 39.5009C65.3159 39.5074 65.45 39.5493 65.663 39.7075C65.8869 39.8737 66.1484 40.1315 66.4341 40.4806C67.0043 41.1771 67.628 42.1836 68.2028 43.3888L68.2028 43.3889C68.728 44.4898 69.0976 45.2293 69.7341 45.6761C70.3656 46.1193 71.2064 46.2359 72.4676 46.3887C74.1304 46.5905 75.3845 46.8039 76.2721 47.0613C76.7153 47.1898 77.0482 47.3241 77.2879 47.4621C77.5285 47.6005 77.6479 47.727 77.7046 47.8278C77.7908 47.981 77.8212 48.2571 77.4264 48.8409C77.0403 49.4121 76.3405 50.1309 75.3068 51.0458L75.3068 51.0459C74.6434 51.6331 74.1261 52.0974 73.7365 52.4879C73.3491 52.8762 73.0589 53.2193 72.8731 53.5689C72.4704 54.3266 72.6218 55.0043 72.8488 55.8822C73.2412 57.4003 73.3871 58.7664 73.3174 59.7762C73.2825 60.283 73.1949 60.6734 73.0761 60.9423C72.9562 61.2136 72.8322 61.3038 72.7526 61.3312L72.7525 61.3313C72.7529 61.3311 72.7528 61.3311 72.7523 61.3313C72.7483 61.3322 72.7194 61.3391 72.6541 61.3397C72.5837 61.3403 72.4899 61.3334 72.3712 61.3159C72.1336 61.2808 71.8285 61.2076 71.4685 61.0962C70.7502 60.8738 69.8552 60.5121 68.9204 60.0504C68.9204 60.0504 68.9204 60.0503 68.9204 60.0503L65.6311 58.4251L65.4211 58.3214L65.2071 58.4163L61.4742 60.0701L61.4742 60.0701C59.728 60.844 58.8435 61.2079 58.2908 61.3063C58.0385 61.3512 57.9011 61.3307 57.8 61.2931C57.6855 61.2504 57.5618 61.1658 57.3587 60.9834C57.1767 60.8197 57.0715 60.6957 57.0036 60.5695C56.9384 60.4483 56.8912 60.2938 56.8769 60.0483C56.8464 59.5213 56.9694 58.6973 57.2668 57.1616C57.2668 57.1616 57.2668 57.1616 57.2668 57.1616L57.938 53.6994ZM70.316 48.4153L70.2827 48.4107L70.2489 48.4105C69.0031 48.4055 68.4555 48.3573 68.0548 48.1346C67.6622 47.9164 67.3439 47.4911 66.7367 46.426C66.463 45.9459 66.1734 45.5356 65.9332 45.2406C65.8138 45.094 65.7008 44.9688 65.6031 44.8756C65.5553 44.83 65.5017 44.7829 65.4461 44.7437C65.4185 44.7243 65.3806 44.6998 65.3351 44.6784C65.2981 44.661 65.2108 44.6234 65.0962 44.6234C64.9648 44.6234 64.8674 44.6721 64.8216 44.6986C64.77 44.7285 64.73 44.762 64.7033 44.7865C64.6496 44.8357 64.6026 44.8923 64.5648 44.9416C64.4867 45.0435 64.4009 45.1769 64.3138 45.3245C64.1373 45.6235 63.9284 46.0267 63.7267 46.4643C63.3738 47.2301 62.854 47.7024 62.1885 47.9939C61.5053 48.2931 60.647 48.4105 59.6184 48.4105C59.1335 48.4105 58.6988 48.4698 58.3762 48.6429C58.2062 48.7343 58.0501 48.8667 57.9479 49.0533C57.8442 49.2424 57.8181 49.4465 57.8415 49.6406C57.885 50.0016 58.1021 50.3582 58.3693 50.6862C58.6478 51.0282 59.0344 51.4026 59.5113 51.8031L59.5114 51.8032C60.1626 52.3499 60.4429 52.6093 60.5843 52.9162C60.7175 53.2052 60.7525 53.603 60.6412 54.5065L60.2713 57.0134L60.1529 57.8159L60.923 57.5611L62.8121 56.9361L62.8396 56.927L62.8658 56.9148C63.9029 56.4329 64.6334 56.2019 65.2987 56.1915C65.9484 56.1814 66.5958 56.3816 67.4626 56.8922L67.5042 56.9168L67.5498 56.9329L69.3194 57.5578L70.0809 57.8268L69.9822 57.0253L69.731 54.9845L69.7293 54.9713L69.727 54.9581C69.545 53.934 69.5279 53.3786 69.6952 52.9032C69.8647 52.4213 70.25 51.9464 71.093 51.1649L71.099 51.1593L71.1048 51.1536L72.7137 49.561L73.4318 48.85L72.431 48.7104L70.316 48.4153Z" fill="white" stroke="white"/>
</svg>
