<svg width="133" height="125" viewBox="0 0 133 125" fill="none" xmlns="http://www.w3.org/2000/svg">
<rect x="30.8984" y="32" width="61" height="55" rx="3" stroke="white" stroke-width="4"/>
<circle cx="44.1484" cy="48.25" r="2.25" fill="white"/>
<circle cx="44.1484" cy="60.8732" r="2.25" fill="white"/>
<circle cx="44.1484" cy="71.8732" r="2.25" fill="white"/>
<path d="M50.4922 48.2099C50.4922 47.4775 51.0859 46.8838 51.8183 46.8838H80.4843C81.2167 46.8838 81.8104 47.4775 81.8104 48.2099C81.8104 48.9423 81.2167 49.536 80.4843 49.536H51.8183C51.0859 49.536 50.4922 48.9423 50.4922 48.2099Z" fill="white"/>
<path d="M50.4922 60.8339C50.4922 60.1015 51.0859 59.5078 51.8183 59.5078H80.4843C81.2167 59.5078 81.8104 60.1015 81.8104 60.8339C81.8104 61.5663 81.2167 62.16 80.4843 62.16H51.8183C51.0859 62.16 50.4922 61.5663 50.4922 60.8339Z" fill="white"/>
<path d="M50.4922 71.8329C50.4922 71.1005 51.0859 70.5068 51.8183 70.5068H80.4843C81.2167 70.5068 81.8104 71.1005 81.8104 71.8329C81.8104 72.5653 81.2167 73.159 80.4843 73.159H51.8183C51.0859 73.159 50.4922 72.5653 50.4922 71.8329Z" fill="white"/>
</svg>
