<svg width="72" height="76" viewBox="0 0 72 76" fill="none" xmlns="http://www.w3.org/2000/svg">
<path fill-rule="evenodd" clip-rule="evenodd" d="M47.6586 15.0316C46.3658 15.4361 45.0475 16.4552 44.2975 17.6301C43.771 18.4551 43.5647 19.3995 43.3849 21.8062C43.1962 24.3304 42.979 25.2736 42.2315 26.8115C39.8825 31.6446 33.8061 35.6542 24.6135 38.4366L21.5772 39.3558L20.5942 38.3166C20.0534 37.7449 19.2338 37.1381 18.7723 36.9683C18.2712 36.784 14.5172 36.6595 9.45357 36.6595C2.15809 36.6595 0.905815 36.7252 0.48684 37.1309C0.0548506 37.5496 0 39.6904 0 56.1657C0 72.6409 0.0548506 74.7818 0.48684 75.2004C0.906125 75.6062 2.16274 75.6719 9.50439 75.6719C18.8486 75.6719 19.5173 75.5651 20.7609 73.874L21.3664 73.0502L25.5395 74.0418C31.781 75.5248 34.4334 75.7211 46.817 75.6158L57.8414 75.5218L59.0971 74.7167C61.4984 73.1772 62.5214 70.2648 61.5805 67.6467L61.1228 66.3734L62.1913 65.7339C64.5391 64.3289 65.7096 60.9126 64.6689 58.5013L64.1895 57.3901L65.2742 56.741C67.6095 55.3431 68.7099 52.2329 67.7824 49.6521L67.3287 48.3902L68.489 47.6466C70.3359 46.4633 71.1203 44.9706 71.1203 42.6395C71.1203 41.0019 70.979 40.4602 70.2888 39.4504C69.8317 38.7814 68.9253 37.9133 68.2745 37.5216C67.1391 36.838 66.8196 36.8056 60.3267 36.7132C54.1391 36.6253 53.5798 36.5739 53.7706 36.113C53.8856 35.836 54.3356 34.3262 54.771 32.7582C55.4766 30.2161 55.5655 29.3059 55.594 24.3556C55.6244 19.0079 55.5987 18.7618 54.8903 17.6583C53.8397 16.0222 52.162 15.0415 50.1588 14.8927C49.2453 14.8245 48.1204 14.8872 47.6586 15.0316ZM51.104 18.1895C52.5698 18.9235 52.7911 19.9469 52.5869 25.0458C52.4018 29.6673 52.0083 31.8706 50.8167 34.9543L50.1579 36.6595H47.2586C45.0357 36.6595 44.2452 36.7696 43.8718 37.1309C43.2498 37.7332 43.2498 38.5867 43.8718 39.189C44.2957 39.5992 45.7435 39.6604 55.0434 39.6604C63.6847 39.6604 65.8912 39.7424 66.5819 40.0881C68.6442 41.121 68.6442 44.2018 66.5819 45.2347C65.9581 45.5471 64.5183 45.6623 61.2412 45.6623C56.4912 45.6623 55.7806 45.8577 55.7806 47.1628C55.7806 48.3536 56.5879 48.6633 59.6918 48.6633C62.9627 48.6633 64.1114 49.0396 64.707 50.3054C65.1753 51.3005 65.1753 52.028 64.707 53.0231C64.0516 54.4161 63.0566 54.6652 58.1423 54.6652C53.3923 54.6652 52.6817 54.8606 52.6817 56.1657C52.6817 57.3565 53.4889 57.6661 56.5928 57.6661C58.529 57.6661 59.8213 57.812 60.3841 58.0938C62.4464 59.1267 62.4464 62.2075 60.3841 63.2404C59.7602 63.5528 58.3205 63.6681 55.0434 63.6681C50.2933 63.6681 49.5828 63.8634 49.5828 65.1685C49.5828 66.3593 50.39 66.669 53.4939 66.669C56.7648 66.669 57.9136 67.0453 58.5092 68.3111C59.2399 69.8641 58.6422 71.6689 57.1838 72.3123C56.1419 72.7721 36.6221 72.8087 32.8405 72.3579C30.2235 72.0461 26.409 71.2641 23.3194 70.4055L21.6925 69.9533V56.169V42.3844L23.0095 42.0492C33.6682 39.3372 41.9749 34.1834 44.8712 28.4852C46.0463 26.1735 46.4631 24.4891 46.4872 21.9548C46.5077 19.8112 46.9394 18.7777 48.0674 18.1724C49.0426 17.6487 50.0355 17.6544 51.104 18.1895ZM18.1067 40.1319C18.5368 40.5487 18.5935 42.4183 18.5935 56.1657C18.5935 69.913 18.5368 71.7826 18.1067 72.1995C17.6914 72.6013 16.5464 72.6709 10.3594 72.6709H3.09892V56.1657V39.6604H10.3594C16.5464 39.6604 17.6914 39.73 18.1067 40.1319Z" fill="white"/>
<path d="M47.8869 10.009C48.3134 10.4107 48.8793 10.4065 49.303 9.99636L47.8869 10.009ZM47.8869 10.009C47.8827 10.0016 47.8738 9.98511 47.8615 9.9558C47.8359 9.89445 47.8069 9.80428 47.777 9.68157C47.7173 9.43666 47.6643 9.10523 47.6208 8.7064C47.534 7.9114 47.4897 6.897 47.4897 5.87528C47.4897 4.85356 47.534 3.83916 47.6208 3.04416C47.6643 2.64533 47.7173 2.31391 47.777 2.06899C47.8069 1.94629 47.8359 1.85612 47.8615 1.79477C47.8736 1.76596 47.8823 1.74952 47.8866 1.74199C47.9696 1.66579 48.097 1.58341 48.2417 1.51924C48.399 1.4494 48.5257 1.42371 48.5883 1.42371C48.8871 1.42371 49.0337 1.46644 49.1205 1.52204C49.1952 1.56987 49.2936 1.67121 49.3835 1.95847C49.4758 2.2536 49.5423 2.69154 49.5833 3.34375C49.6238 3.99033 49.6378 4.81692 49.6378 5.87528C49.6378 7.50148 49.6141 8.49917 49.545 9.13468C49.4744 9.78363 49.3654 9.93573 49.3031 9.99622L47.8869 10.009ZM38.8865 13.3057C38.339 12.8648 37.6476 12.2516 36.9477 11.5738C35.6371 10.3046 34.9262 9.48778 34.6332 8.91004C34.4931 8.6338 34.4752 8.46198 34.4925 8.34939C34.5092 8.2406 34.5701 8.11249 34.7431 7.94501C34.9148 7.7787 35.0517 7.71431 35.1766 7.69633C35.3063 7.67767 35.4934 7.69894 35.7815 7.83596C36.382 8.12157 37.2269 8.81186 38.5365 10.0799C39.2364 10.7577 39.8696 11.4272 40.3246 11.9572C40.553 12.2232 40.7303 12.4469 40.8477 12.6148C40.8966 12.6848 40.9306 12.7387 40.9524 12.7774C40.9398 12.8284 40.9107 12.9063 40.8497 13.0096C40.7639 13.155 40.6368 13.3133 40.4848 13.4605C40.333 13.6076 40.1686 13.7315 40.0164 13.8158C39.8983 13.8811 39.8086 13.9111 39.7497 13.9224C39.7079 13.9011 39.6473 13.8658 39.5667 13.813C39.3927 13.6989 39.1613 13.5269 38.8865 13.3057ZM40.9782 12.8292C40.978 12.8291 40.9768 12.8264 40.9752 12.8214C40.9775 12.8268 40.9784 12.8293 40.9782 12.8292ZM39.7925 13.9416C39.7926 13.9417 39.7906 13.9411 39.7864 13.9394C39.7903 13.9406 39.7924 13.9415 39.7925 13.9416ZM56.1984 12.8292C56.1983 12.8292 56.1991 12.8267 56.2015 12.8214C56.1998 12.8265 56.1986 12.8292 56.1984 12.8292ZM56.2242 12.7774C56.2461 12.7386 56.28 12.6848 56.3289 12.6148C56.4463 12.4469 56.6236 12.2232 56.852 11.9572C57.307 11.4272 57.9402 10.7577 58.6401 10.0799C59.9497 8.81186 60.7946 8.12157 61.3951 7.83596C61.6832 7.69894 61.8703 7.67767 62 7.69633C62.1249 7.71431 62.2618 7.7787 62.4335 7.94501C62.6065 8.11249 62.6674 8.2406 62.6841 8.34939C62.7014 8.46198 62.6835 8.6338 62.5434 8.91004C62.2504 9.48778 61.5395 10.3046 60.229 11.5738C59.5291 12.2516 58.8376 12.8648 58.2901 13.3057C58.0153 13.5269 57.7839 13.6989 57.6099 13.813C57.5293 13.8658 57.4687 13.9011 57.4269 13.9224C57.368 13.9111 57.2783 13.8811 57.1603 13.8158C57.008 13.7315 56.8437 13.6076 56.6918 13.4605C56.5398 13.3133 56.4128 13.155 56.3269 13.0096C56.2659 12.9063 56.2368 12.8284 56.2242 12.7774ZM57.3841 13.9416C57.3842 13.9415 57.3863 13.9406 57.3902 13.9394C57.386 13.9411 57.384 13.9417 57.3841 13.9416ZM28.9453 21.3302C28.9453 21.2789 28.969 21.1626 29.0403 21.012C29.1087 20.8673 29.1981 20.7399 29.2798 20.6605C29.3481 20.5944 29.5118 20.4901 30.117 20.4215C30.7108 20.3542 31.627 20.3297 33.0937 20.3297C35.0588 20.3297 36.1345 20.3963 36.721 20.5856C36.9943 20.6738 37.0966 20.7697 37.1454 20.8432C37.199 20.924 37.2421 21.0591 37.2421 21.3302C37.2421 21.6013 37.199 21.7364 37.1454 21.8172C37.0966 21.8906 36.9943 21.9866 36.721 22.0748C36.1345 22.2641 35.0588 22.3307 33.0937 22.3307C31.1286 22.3307 30.0529 22.2641 29.4664 22.0748C29.1931 21.9866 29.0908 21.8906 29.042 21.8172C28.9884 21.7364 28.9453 21.6013 28.9453 21.3302ZM59.9345 21.3302C59.9345 21.2789 59.9582 21.1626 60.0295 21.012C60.0979 20.8673 60.1873 20.7399 60.2691 20.6605C60.3373 20.5944 60.501 20.4901 61.1062 20.4215C61.7001 20.3542 62.6163 20.3297 64.0829 20.3297C66.048 20.3297 67.1237 20.3963 67.7102 20.5856C67.9835 20.6738 68.0859 20.7697 68.1346 20.8432C68.1882 20.924 68.2313 21.0591 68.2313 21.3302C68.2313 21.6013 68.1882 21.7364 68.1346 21.8172C68.0859 21.8906 67.9835 21.9866 67.7102 22.0748C67.1237 22.2641 66.048 22.3307 64.0829 22.3307C62.1179 22.3307 61.0422 22.2641 60.4556 22.0748C60.1823 21.9866 60.08 21.8906 60.0312 21.8172C59.9776 21.7364 59.9345 21.6013 59.9345 21.3302Z" fill="white" stroke="white"/>
</svg>
