<svg width="22" height="23" viewBox="0 0 22 23" fill="none" xmlns="http://www.w3.org/2000/svg">
<path fill-rule="evenodd" clip-rule="evenodd" d="M11.6115 18.1615C9.34285 17.0611 7.35514 15.5058 5.70392 13.5304C4.3441 11.8953 3.42829 10.3643 2.82123 8.71533C2.42577 7.64955 2.27313 6.76777 2.33904 5.93805C2.39455 5.27498 2.66166 4.70217 3.13343 4.23003L4.43082 2.93165C4.802 2.57755 5.22521 2.39355 5.66577 2.39355C6.10979 2.39355 6.52953 2.57755 6.88684 2.92818C7.12273 3.14689 7.36208 3.3899 7.59103 3.62597L7.60061 3.63584C7.71518 3.75387 7.82674 3.8688 7.94487 3.98702L8.97861 5.02155C9.35673 5.39649 9.55446 5.83044 9.55446 6.27133C9.55446 6.71222 9.35326 7.14617 8.97861 7.5211C8.87108 7.62872 8.76354 7.73634 8.65947 7.84396C8.36461 8.14599 8.05934 8.45496 7.73326 8.75005C7.96568 9.28815 8.2987 9.81583 8.79476 10.4442C9.77647 11.6488 10.8033 12.5862 11.9342 13.3048C12.0486 13.3777 12.177 13.4436 12.3157 13.5131L12.3158 13.5131C12.4268 13.5686 12.5447 13.6276 12.6592 13.6936L13.9011 12.4508C14.2653 12.0863 14.692 11.8918 15.136 11.8918C15.58 11.8918 16.0032 12.0863 16.3571 12.4542L18.4419 14.5407C19.1877 15.2871 19.1877 16.2661 18.4488 17.0367C18.2893 17.2034 18.1228 17.3666 17.9597 17.5228C17.9432 17.5388 17.9268 17.5547 17.9105 17.5706C17.689 17.7856 17.4776 17.9908 17.2902 18.2171C17.2867 18.224 17.2798 18.231 17.2763 18.2344C16.7109 18.8489 16.0171 19.1475 15.1533 19.1475C15.0767 19.1475 15.0033 19.1443 14.9269 19.1409L14.9175 19.1405C13.6305 19.0572 12.4753 18.5712 11.6115 18.1615Z" fill="#A9D7C2"/>
</svg>
