<svg width="22" height="23" viewBox="0 0 22 23" fill="none" xmlns="http://www.w3.org/2000/svg">
<path fill-rule="evenodd" clip-rule="evenodd" d="M9.77336 1.75382C8.28536 2.03809 7.08715 2.67273 6.01749 3.74322C4.39151 5.37053 3.64725 7.64148 4.0272 9.81676C4.51666 12.6195 6.77642 16.2988 10.1443 19.7764C10.547 20.1922 10.9326 20.5324 11.0011 20.5324C11.0697 20.5324 11.4552 20.1922 11.8579 19.7764C15.2258 16.2988 17.4856 12.6195 17.975 9.81676C18.355 7.64148 17.6107 5.37053 15.9847 3.74322C15.0404 2.79827 13.9992 2.20007 12.7071 1.86033C11.9738 1.66752 10.5043 1.61419 9.77336 1.75382ZM11.6793 5.56821C12.9672 5.84194 13.9612 6.90299 14.1917 8.25023C14.417 9.5659 13.6848 10.9963 12.4728 11.6086C10.5212 12.5945 8.18755 11.412 7.81704 9.24954C7.43621 7.0269 9.46115 5.09688 11.6793 5.56821Z" fill="#A9D7C2"/>
</svg>
