<svg width="132" height="125" viewBox="0 0 132 125" fill="none" xmlns="http://www.w3.org/2000/svg">
<path fill-rule="evenodd" clip-rule="evenodd" d="M65.5 91C81.2401 91 94 78.2401 94 62.5C94 46.7599 81.2401 34 65.5 34C49.7599 34 37 46.7599 37 62.5C37 78.2401 49.7599 91 65.5 91ZM65.5 95C83.4493 95 98 80.4493 98 62.5C98 44.5507 83.4493 30 65.5 30C47.5507 30 33 44.5507 33 62.5C33 80.4493 47.5507 95 65.5 95Z" fill="white"/>
<path d="M75.8328 63.7936C76.8204 63.2139 76.8204 61.7861 75.8328 61.2064L61.7593 52.9458C60.7593 52.3589 59.5 53.08 59.5 54.2395V70.7605C59.5 71.92 60.7593 72.6411 61.7593 72.0542L75.8328 63.7936Z" fill="white" stroke="white" stroke-width="3"/>
</svg>
