<svg width="133" height="125" viewBox="0 0 133 125" fill="none" xmlns="http://www.w3.org/2000/svg">
<path fill-rule="evenodd" clip-rule="evenodd" d="M59.6662 26.5236C59.1772 26.989 58.8909 27.8287 58.435 30.1329C58.1085 31.7845 57.8423 33.3369 57.8437 33.5828C57.8454 33.8771 57.4926 34.1225 56.8119 34.301C56.2432 34.4501 51.5067 36.198 46.2868 38.1851C33.7314 42.9646 33.5855 43.0869 32.3259 49.8731C31.9712 51.7841 30.6694 58.7814 29.4327 65.4224C27.7635 74.3876 27.2243 77.831 27.339 78.7935C27.6791 81.6461 30.0339 84.5243 32.7005 85.3472C33.409 85.5659 37.9604 86.4037 42.8146 87.2091C47.6689 88.0144 52.7134 88.8559 54.0249 89.0791L56.4095 89.4849L56.6034 90.9627C56.9876 93.8895 57.7662 95.6745 59.3132 97.1749C61.563 99.3572 63.9741 100.019 67.5177 99.4276C69.3085 99.1286 76.6254 97.9041 89.5642 95.738C100.384 93.9265 101.313 93.6349 103.089 91.4966C104.217 90.1385 105.009 88.1312 105.009 86.6311C105.009 86.1489 104.628 83.7192 104.161 81.2318C103.694 78.7447 103.021 75.115 102.665 73.166C99.7465 57.1906 97.4793 45.4454 97.1354 44.518C96.239 42.0994 94.5726 40.7788 90.3916 39.1729C88.9505 38.6193 84.6065 36.9469 80.7383 35.4562C76.8701 33.9655 73.5069 32.7449 73.2647 32.7439C72.9211 32.7426 72.7214 32.152 72.3548 30.0515C72.0967 28.5716 71.7064 27.1008 71.4874 26.7827C70.9416 25.99 69.3593 25.729 68.4678 26.285C67.4697 26.9074 67.3494 27.8295 67.8831 30.771L68.36 33.3983L67.7229 33.7912C67.3723 34.0073 66.4997 34.6997 65.7831 35.33L64.4805 36.4755L63.6558 35.8151C63.2021 35.4518 62.6833 35.1079 62.5029 35.0507C62.2583 34.973 62.3261 34.1432 62.7685 31.7973C63.5232 27.7962 63.516 27.352 62.6852 26.5617C61.8071 25.7256 60.5215 25.7096 59.6662 26.5236ZM81.777 40.5252C86.8943 42.496 91.3497 44.2749 91.678 44.4781C92.6171 45.0593 93.0451 46.2431 93.7942 50.3291C94.1779 52.4225 95.8032 61.1942 97.4062 69.8218C99.0092 78.4497 100.321 86.0297 100.321 86.667C100.321 87.8411 99.5082 89.136 98.4292 89.6812C97.9399 89.9285 93.9539 90.6314 78.9455 93.1173C73.6362 93.9969 68.317 94.8875 67.1252 95.097C65.095 95.4534 64.8829 95.4458 63.7697 94.9773C63.1161 94.7022 62.3899 94.1987 62.1557 93.8585C61.7411 93.2564 61.0025 90.5488 61.2014 90.3598C61.256 90.3078 62.2299 90.4377 63.3657 90.6485C66.7998 91.2856 68.6819 91.1795 70.6961 90.2359C72.6521 89.3195 73.6497 88.332 74.5494 86.4219C75.4913 84.4219 80.85 55.1975 80.6547 53.1259C80.4316 50.7604 79.5774 49.5049 76.1739 46.5403C74.5056 45.0871 71.9643 42.8766 70.5268 41.628L67.9132 39.3582L68.5729 38.6841C69.3132 37.9276 71.2436 36.9425 71.9858 36.9422C72.2539 36.9419 76.6599 38.5544 81.777 40.5252ZM56.4944 40.6103C56.1549 42.1173 56.3982 42.9822 57.3384 43.609C58.9467 44.681 60.524 43.6342 60.9893 41.1865L61.2982 39.5595L67.9154 45.2181C75.1816 51.4318 75.9235 52.1489 76.1466 53.1756C76.2302 53.5591 75.3029 59.2473 74.0863 65.8162C72.87 72.385 71.6002 79.2466 71.2645 81.0644C70.9292 82.8819 70.4346 84.6889 70.1655 85.0797C69.5614 85.957 68.1308 86.8132 67.2667 86.8145C66.9112 86.8151 60.9537 85.8667 54.0279 84.7067C31.7701 80.9788 33.3723 81.3353 32.458 79.9084C31.7569 78.8138 31.7806 77.711 32.6009 73.2906C37.1724 48.6512 37.4231 47.4091 37.9712 46.6765C38.6085 45.8247 39.0807 45.6173 49.2961 41.7002C53.316 40.1588 56.6464 38.9889 56.6969 39.1007C56.7474 39.2125 56.6563 39.8918 56.4944 40.6103Z" fill="white"/>
<path fill-rule="evenodd" clip-rule="evenodd" d="M56.4502 47.9929C56.2414 48.1186 55.9179 48.7961 55.7309 49.4982C55.4087 50.7078 55.3345 50.7826 54.3176 50.9228C51.7937 51.2714 49.6832 53.0115 48.8668 55.4172C47.8494 58.4154 48.7441 60.4513 52.1939 62.9891L53.0746 63.6369L52.4126 67.2819C52.0486 69.2868 51.6131 71.5589 51.4445 72.3309L51.1381 73.735L50.1284 73.3334C49.5729 73.1126 48.5681 72.5239 47.8954 72.0249C47.2227 71.5261 46.5065 71.118 46.3037 71.118C45.7427 71.118 44.832 72.1002 44.832 72.7055C44.832 73.6641 47.3606 75.5205 49.496 76.1292L50.6621 76.4618L50.4825 77.7044C50.2544 79.2844 50.6472 80.0427 51.6941 80.0427C52.6975 80.0427 53.2751 79.3972 53.5142 78.0084C53.6775 77.0605 53.8049 76.8928 54.3612 76.8928C55.7408 76.8928 58.1693 75.774 59.4631 74.543C62.2846 71.8574 62.7086 67.7877 60.4593 64.9809C59.8451 64.2147 59.2452 63.7703 56.8738 62.3244C56.4874 62.089 56.5136 61.6842 57.1284 58.387C57.5054 56.3659 57.8692 54.5604 57.9373 54.3748C58.0987 53.9344 59.3067 54.5071 60.2563 55.4747C61.2647 56.5018 62.4703 56.249 62.8831 54.924C63.1184 54.1691 61.5932 52.5337 59.8454 51.6667C58.5971 51.0475 58.5789 51.0197 58.7259 49.9644C58.965 48.2493 57.7586 47.2041 56.4502 47.9929ZM54.7611 54.2323C54.7611 54.6426 54.0934 58.4031 53.7718 59.8027L53.6276 60.4308L52.6901 59.5662C51.5849 58.5464 51.2893 57.5497 51.7223 56.301C52.2579 54.7568 54.7611 53.0524 54.7611 54.2323ZM57.5289 66.3403C59.2582 67.9861 59.2819 70.2822 57.5898 72.196C56.9453 72.9252 54.5943 74.2083 54.3543 73.9618C54.3074 73.9135 54.6227 71.9842 55.0546 69.6742C55.4865 67.3643 55.8453 65.4447 55.8522 65.4087C55.9099 65.0979 56.6626 65.5161 57.5289 66.3403Z" fill="white"/>
</svg>
