<svg width="132" height="125" viewBox="0 0 132 125" fill="none" xmlns="http://www.w3.org/2000/svg">
<path fill-rule="evenodd" clip-rule="evenodd" d="M52.2425 29.1055C49.4414 29.5479 48.4478 31.5359 47.9889 33.0902C47.8388 33.5982 47.7405 39.1734 47.7398 47.2281L47.7383 60.5273L46.0751 60.824C39.6962 61.9625 34.2482 66.5147 32.0815 72.5168C31.1781 75.0193 30.9676 78.9969 31.5938 81.731C32.8238 87.1018 37.1851 92.1696 42.6814 94.3458C46.5743 95.8871 46.9651 95.4556 72.1754 95.4553L95.0145 95.4531C95.9171 95.453 96.8095 95.2632 97.634 94.896C98.3218 94.5894 99.2447 93.9817 99.6846 93.5452C101.261 91.607 101.26 93.4741 101.26 67.0582V43.1141L93.8151 36.1099L86.37 29.1055L69.6176 29.1258C60.404 29.1368 52.5871 29.007 52.2425 29.1055ZM83.5031 38.9468V41.8674V44.7879C83.5019 45.4071 83.9995 45.9119 84.6186 45.9196L91.026 45.9992L97.2588 46.0696V68.186V89.4598C97.2588 89.9976 97.0366 90.5116 96.6448 90.8801C96.2506 91.2511 95.7296 91.4577 95.1882 91.4577H78.8589H61.3921L63.1802 89.9556C65.6459 87.4759 67.2729 84.5394 67.9862 81.2814L68.2777 79.5804H79.4414C86.8605 79.5804 90.1882 79.759 90.6052 79.5804C91.8239 79.0578 92.0804 77.7209 91.153 76.7063C90.7685 76.2854 90.2256 76.0442 89.6555 76.0408L79.4012 75.9802L68.2525 75.9144L68.1102 75.2744C67.6165 73.0551 67.3529 72.3099 66.4278 70.5168C65.8603 69.4168 64.7786 67.6506 64.7256 67.5537C64.6728 67.4568 70.9917 67.5537 77.9191 67.5537C91.7293 67.5537 91.1126 67.5537 91.6275 66.7691C92.212 65.8783 91.2606 64.7766 90.6198 64.5453C90.3972 64.4651 83.7452 64.3992 75.8377 64.3992H61.4607L60.6644 63.8378C58.6215 62.3976 54.0434 60.6346 52.3462 60.6346H51.7279L51.7964 47.3197V33.9712L52.2962 33.5362C52.863 33.1044 53.4952 33.0866 68.1153 33.0866L83.5031 33.1055V38.9468ZM87.0531 35.3222L95.1721 42.5382H91.1126H87.0531V38.9468C87.0531 37.2645 87.0531 35.3222 87.0531 35.3222ZM57.9733 54.0838C57.6214 54.3642 57.6214 55.046 57.6214 55.046C57.6214 55.046 57.6214 55.5883 57.9733 56.0081C58.445 56.4124 59.0458 56.6346 59.6671 56.6346H74.4994H89.2907C89.9354 56.6346 90.5559 56.3886 91.0255 55.9468C91.62 55.046 91.0255 54.2845 91.0255 54.2845C90.5559 53.8428 89.9354 53.5968 89.2907 53.5968H74.4994H59.5827C59.0099 53.5968 58.45 53.7662 57.9733 54.0838ZM54.4218 65.0994C57.3405 66.0655 60.1709 68.177 61.8949 70.6749C64.1043 73.8758 64.7493 78.4275 63.5046 82.0343C62.7803 84.1333 60.9127 86.8476 59.2938 88.1542C57.7877 89.3695 55.2256 90.6391 53.3526 91.0982C52.5453 91.2958 50.9193 91.4577 49.7391 91.4577C45.6504 91.4577 42.4768 90.2412 39.5986 87.5709C31.6161 80.1651 35.2831 67.5629 46.2376 64.7543C48.2175 64.2467 52.3749 64.422 54.4218 65.0994Z" fill="white"/>
<path fill-rule="evenodd" clip-rule="evenodd" d="M50.9687 76.8741C48.5121 79.1854 46.4695 81.2637 46.3668 81.2637C46.2641 81.2637 45.4286 80.409 44.573 79.5933C43.2175 78.3007 42.8902 78.1101 42.0268 78.1101C40.715 78.1101 39.9883 78.7946 39.9883 80.0303C39.9883 80.8839 40.2125 81.1709 42.6736 83.4661C44.1506 84.8438 45.6183 86.0432 45.9353 86.1319C46.2625 86.2234 46.8286 86.1354 47.2452 85.9285C47.6486 85.7277 50.3659 83.2963 53.2838 80.5252C58.1666 75.888 58.589 75.4176 58.589 74.617C58.589 73.4529 57.7121 72.6718 56.4059 72.6718C55.4999 72.6718 55.1389 72.9506 50.9687 76.8741Z" fill="white"/>
</svg>
