<svg width="132" height="126" viewBox="0 0 132 126" fill="none" xmlns="http://www.w3.org/2000/svg">
<path d="M76.1852 43.9389C76.1852 49.6309 71.2984 54.3779 65.1023 54.3779C58.9063 54.3779 54.0195 49.6309 54.0195 43.9389C54.0195 38.2469 58.9063 33.5 65.1023 33.5C71.2984 33.5 76.1852 38.2469 76.1852 43.9389Z" stroke="white" stroke-width="3"/>
<path d="M49.9249 47.0531C49.9249 51.025 46.5078 54.3775 42.1246 54.3775C37.7413 54.3775 34.3242 51.025 34.3242 47.0531C34.3242 43.0812 37.7413 39.7286 42.1246 39.7286C46.5078 39.7286 49.9249 43.0812 49.9249 47.0531Z" stroke="white" stroke-width="3"/>
<path fill-rule="evenodd" clip-rule="evenodd" d="M57.4409 54.3197H53.6114H48.6876C48.6876 54.3197 48.3802 54.3197 44.8581 54.3197C42.31 54.3197 41.5756 54.3197 39.9344 54.3197H37.7461H36.6519C36.6519 54.3197 34.4636 54.3197 33.5734 54.6189C33.2429 54.73 32.9139 54.9063 32.2085 55.2009C30.5685 55.8856 28.4888 58.1005 27.8818 59.8097C27.1748 61.7998 27.1748 86.7424 27.8818 88.7324C28.5271 90.5489 30.5919 92.6779 32.5185 93.5129L34.0846 94.1919L55.2928 94.2721C69.5295 94.3259 76.9867 94.2525 77.979 94.0485C80.8422 93.4594 83.4449 91.2388 84.3308 88.6291C84.5192 88.0739 84.7722 86.8815 84.893 85.9794L85.1122 84.3393L89.1173 87.0927C93.7756 90.2954 95.0071 90.9049 96.8307 90.9112C98.8229 90.9183 100.137 90.471 101.563 89.2999C103.959 87.3329 103.937 87.466 103.943 74.5557C103.946 68.0262 103.825 62.7477 103.659 62.1763C102.986 59.8578 99.8601 57.6298 97.2758 57.6272C95.1638 57.6252 94.0474 58.1395 89.5424 61.1902L85.1122 64.19L84.893 62.5562C84.2542 57.7988 82.2514 54.883 77.8336 54.167H72.212L57.4409 54.3197ZM78.3748 58.162C79.7344 58.8276 80.3586 59.4739 80.9475 60.8257C81.3344 61.7141 81.4038 63.758 81.4038 74.2711C81.4038 84.7841 81.3344 86.828 80.9475 87.7165C80.3328 89.1274 79.7003 89.7621 78.2887 90.3839C77.173 90.8754 75.8424 90.9069 56.0579 90.9129C35.6229 90.9189 34.9782 90.9027 33.7897 90.3509C33.1166 90.0381 32.2399 89.3659 31.8418 88.8568L31.1179 87.9311V74.2711V60.6111L31.7824 59.7172C32.1479 59.2257 33.0157 58.5536 33.7108 58.2234C34.9607 57.6301 35.2093 57.6235 56.1244 57.6233C76.2927 57.623 77.3252 57.648 78.3748 58.162ZM98.2171 61.034C98.4085 61.0363 98.976 61.4321 99.478 61.9136L100.391 62.7893V74.178C100.391 85.2036 100.372 85.5926 99.7826 86.3861C99.0282 87.402 97.2594 87.9311 96.0686 87.4968C95.6177 87.3323 92.9414 85.6339 90.1215 83.7226L84.9941 80.2473L84.9912 74.2711L84.9882 68.2948L90.0227 64.8798C95.4598 61.1916 96.3662 60.6939 97.2758 60.8974C97.6021 60.9705 98.0257 61.032 98.2171 61.034Z" fill="white"/>
</svg>
